<svg xmlns="http://www.w3.org/2000/svg" width="1440" height="311" viewBox="0 0 1440 311">
  <defs>
    <style>
      .cls-1 {
        fill: lime;
        fill-rule: evenodd;
      }
    </style>
  </defs>
  <g id="Artboard_1" data-name="Artboard 1">
    <path id="Southern_Leaves" data-name="Southern Leaves" class="cls-1" d="M256.146,60.313q-11.471,0-26.9,16a136.379,136.379,0,0,0-25.63,38.232q-16,9.631-36.816,23.506a72.423,72.423,0,0,0,2.549-18.55q0-16.707-10.266-26.479T131.4,83.252q-32,0-64.712,24.073Q41.052,126.3,26.893,149.947t-14.16,47.578q0,37.244,29.595,52.534-7.222,13.328-7.222,24.391a41.864,41.864,0,0,0,3.777,16.45q3.777,8.789,7.056,8.79c0.942,0,1.416-.378,1.416-1.133a2.719,2.719,0,0,0-.85-1.984,35.141,35.141,0,0,1-8.142-22.409q0-9.643,6.655-22.689,12.034,5.237,27.754,5.239,54.8,0,98.98-41.772Q187.044,200.5,193.7,186.551t14.585-47.225q4.954-21.24,7.5-29.311a193.95,193.95,0,0,0,33.347-24.568Q262.8,72.633,262.8,65.835q0-5.523-6.655-5.523h0Zm-8.284,23.223q-12.251,11.47-30.94,22.939a93.4,93.4,0,0,1,18.054-30.657q11.682-13.1,21.17-13.1,3.961,0,3.964,3.4Q260.11,72.066,247.862,83.536ZM129.7,194.409q-21.665,20.816-41.489,20.816a27.062,27.062,0,0,1-12.744-3.115q23.646-24.5,77.031-61.314l9.346-6.372A128.511,128.511,0,0,1,129.7,194.409Zm66.128-60.6q-10.763,29.6-15.576,40.286a160.746,160.746,0,0,1-13.169,23.152Q149.237,224,124.314,239.085t-51.542,15.08a63.4,63.4,0,0,1-26.338-5.239,202.063,202.063,0,0,1,27.188-34.834,36.071,36.071,0,0,0,14.3,3.4q21.522,0,44.958-22.657a123.359,123.359,0,0,0,32.781-52.675q19.68-13.309,36.25-23.79-3.542,8.072-6.089,15.435h0Zm-32.568,6.655Q101.8,180.534,73.338,210.552q-8.639-7.36-8.638-16.709a22.363,22.363,0,0,1,2.549-10.054q2.549-5.1,4.956-5.1a0.751,0.751,0,0,1,.85.849,14.311,14.311,0,0,1-.566,2.124,9.007,9.007,0,0,0-1.416,4.532q0,6.657,6.938,6.655a11.8,11.8,0,0,0,8.355-3.328,10.441,10.441,0,0,0,3.54-7.859q0-8.778-9.487-8.779A16.855,16.855,0,0,0,67.391,178.9a21.014,21.014,0,0,0-5.381,14.514q0,11.189,9.346,19.258Q53.371,231.51,43.743,247.368,23.21,235.617,23.211,207.72q0-42.48,35.613-82.129t73.7-39.648q15.434,0,24.851,9.063t9.417,23.931q0,9.063-3.54,21.523h0Zm125.954,65.349q-0.709,0-2.274,1.978a51.251,51.251,0,0,1-13.917,14.256q-8.518,5.927-14.89,5.927a12.137,12.137,0,0,1-6.372-1.7q17.132-22.94,17.134-39.224,0-13.026-12.178-13.027-13.029,0-33.135,14.3-28.6,20.25-28.6,42.055A24.888,24.888,0,0,0,201,247.156q6.021,7.01,14.525,7.009,16.439,0,35.144-26.479a17.2,17.2,0,0,0,7.795,1.7q10.484,0,22.955-12.423,8.359-8.326,8.361-10.587a0.5,0.5,0,0,0-.567-0.567h0ZM264.5,198.374q-0.849-2.831-3.115-2.832-5.241,0-10.762,7.364t-5.522,14.3q0,4.817,4.106,9.346-18.127,25.206-33.418,25.205-9.345,0-9.346-9.77,0-16.85,18.55-41.49t31.436-24.638q10.335,0,10.337,11.469a26.276,26.276,0,0,1-2.266,11.045h0Zm115.476,7.293q-0.71,0-1.418,1.416l-2.551,3.122-4.4,6.1q-25.525,35.741-36.868,35.739-5.814,0-5.814-6.089,0-7.5,16.142-33.842l22.657-36.958a71.884,71.884,0,0,1-10.054.991,34.483,34.483,0,0,1-7.363-.991l-13.877,23.506q-31.58,53.385-45.879,53.383-5.383,0-5.381-6.372,0-6.512,5.1-15.01l33.7-55.507a80.857,80.857,0,0,1-9.629.991,39.824,39.824,0,0,1-7.5-.991l-25.772,43.33Q274.7,229.1,274.7,237.315a17.594,17.594,0,0,0,4.248,11.965,13.348,13.348,0,0,0,10.479,4.885q5.947,0,12.6-6.372,6.087-5.661,19.117-22.373l2.832-3.823q-5.523,9.913-5.523,15.435a17.935,17.935,0,0,0,4.323,12.106,13.429,13.429,0,0,0,10.563,5.027q9.924,0,26.935-20.138,20.554-24.248,20.555-27.511a0.751,0.751,0,0,0-.85-0.849h0Zm34.48-31.648,16.284-27.471a31.764,31.764,0,0,1-8.213,1.133,31.272,31.272,0,0,1-8.071-1.133l-16.567,27.471h-14.16l-1.417,2.124h14.444l-23.789,39.932q-7.507,12.744-7.5,21.24a17.012,17.012,0,0,0,4.465,12.036,14.561,14.561,0,0,0,11.129,4.814q13.467,0,40.119-37.013l6.1-8.366a15.15,15.15,0,0,0,1.416-2.27,0.751,0.751,0,0,0-.85-0.849q-0.71,0-1.7,1.416-30.629,44.96-43.531,44.958-6.665,0-6.665-6.372,0-5.8,5.806-15.576l31.577-53.95h18.55l1.133-2.124h-18.55ZM518.6,205.667a2.045,2.045,0,0,0-1.7,1.418l-2.553,3.12-4.395,6.1q-25.527,35.741-36.586,35.739-6.1,0-6.1-6.089,0-5.236,13.877-25.771Q493.609,201.775,493.611,192a19.386,19.386,0,0,0-4.319-12.744q-4.32-5.237-10.407-5.239-15.437,0-42.056,39.507,21.1-35.116,21.948-36.534,29.169-47.152,43.9-70.8a40.047,40.047,0,0,1-10.762,1.416,37.762,37.762,0,0,1-7.222-.85l-21.523,36.533Q439.092,184.358,434.422,192q-8.781,15.718-13.027,23.789l-20.816,37.666a55.067,55.067,0,0,1,8.355-.849,37.822,37.822,0,0,1,7.221.849q24.779-44.6,38.941-60.6,14.726-16.707,23.222-16.709,5.805,0,5.806,5.522,0,4.674-16.851,29.453-10.763,16-10.761,25.914a17.8,17.8,0,0,0,4.323,12.248,14.178,14.178,0,0,0,11.129,4.885q13.042,0,39.693-37.013l6.095-8.366a3.912,3.912,0,0,0,1.418-2.553,0.5,0.5,0,0,0-.566-0.566h0Zm71.65,0.141q-1.134,0-2.834,2.264-32.461,43.689-54.855,43.686-13.182,0-13.182-12.178,0-9.77,9.629-24.355,31.149-6.23,44.463-13.381t13.31-17.347a9.381,9.381,0,0,0-3.611-7.434,13.065,13.065,0,0,0-8.708-3.044q-11.755,0-30.445,10.195-35.544,19.4-35.542,44.888,0,10.762,6.731,17.912a21.958,21.958,0,0,0,16.654,7.151q20.974,0,50.312-36.2l6.094-7.633q2.549-3.252,2.551-3.677a0.763,0.763,0,0,0-.567-0.85h0ZM564.7,198.445q-14.162,9.558-34.55,14.8,11.751-16.566,24-26.975T573.9,175.86q4.956,0,4.956,4.531Q578.855,188.887,564.7,198.445Zm105.989,7.222q-0.709,0-3.547,3.124-13.056,18.33-24.118,18.328-8.942,0-8.939-11.894a38.5,38.5,0,0,1,1.982-10.762l1.7-1.416q6.23-3.823,9.345-5.805,19.681-12.6,19.683-19.4,0-3.823-4.39-3.823-6.372,0-14.372,8.5a71.159,71.159,0,0,0-13.382,21.1,112.848,112.848,0,0,0-14.018,13.877q11.608-17.982,11.611-28.887,0-14.583-11.346-14.585-7.8,0-29.643,29.09l-2.553,3.547a2.144,2.144,0,0,0-.567,1.135,0.755,0.755,0,0,0,.567.849q0.991,0,2.27-1.984,20.859-30.513,28.805-30.513,3.262,0,3.263,3.965,0,6.8-17.417,35.117L582.4,252.891q8.07-.567,8.637-0.566,1.275,0,8.779.566,13.734-23.5,19.329-31.152A96.432,96.432,0,0,1,633.655,206.3a38.976,38.976,0,0,0-1.7,10.054q0,12.462,10.782,12.461,9.5,0,20.286-11.932,8.51-9.234,8.51-10.371a0.751,0.751,0,0,0-.85-0.849h0Zm113.281,0c-0.473,0-.944.473-1.418,1.416q-30.91,44.96-43.531,44.958-5.815,0-5.815-5.805,0-5.523,13.311-25.489,13.026-19.541,13.027-29.028a19.024,19.024,0,0,0-4.248-12.6,13.132,13.132,0,0,0-10.479-5.1q-7.645,0-16.638,8.5t-25.7,31.577q10.62-16.143,10.62-25.205a16.591,16.591,0,0,0-3.405-10.478q-3.4-4.387-8.226-4.39-7.518,0-29.217,29.09l-2.695,3.547a2.143,2.143,0,0,0-.566,1.135,0.84,0.84,0,0,0,.849.849q0.711-.138,1.987-1.984,21.283-30.513,28.522-30.513,3.545,0,3.547,4.248,0,7.507-18.833,37.524l-22.09,34.976a73.005,73.005,0,0,1,9.345-.566q1.414,0,8.355.566,43.044-76.747,63.721-76.748,6.086,0,6.089,5.806,0,4.672-11.47,21.665-11.044,16.141-13.665,21.594a26.922,26.922,0,0,0-2.619,11.824,17.864,17.864,0,0,0,4.323,12.177,13.648,13.648,0,0,0,10.7,4.956q9.637,0,26.511-20.138,20.553-24.532,20.554-27.511a0.751,0.751,0,0,0-.85-0.849h0ZM1104.62,66.827q-13.875,0-40.07,27.471a237.968,237.968,0,0,0-23.08,28.037q-10.065,14.443-32.29,51.685-26.619,22.515-44.814,31.577t-36.6,9.063q-21.384,0-33.631-10.9t-12.248-30.019q0-40.639,34.338-78.164t71.863-37.524q15.575,0,25.556,9.417t9.99,24q0,27.048-26.413,57.561t-49.773,30.515q-10.056,0-16.779-5.947a19.024,19.024,0,0,1-6.727-14.868q0-8.778,3.116-8.779,1.131,0,.991,4.106-0.285,6.372,6.655,6.372a10.289,10.289,0,0,0,7.647-3.611,11.741,11.741,0,0,0,3.4-8.283q0-8.636-8.779-8.638-6.514,0-11.258,5.593a19.814,19.814,0,0,0-4.743,13.24,21.757,21.757,0,0,0,7.434,16.709,25.979,25.979,0,0,0,18.2,6.8q25.345,0,52.534-31.011t27.191-60.039q0-16.425-11.12-26.055T985.394,55.5q-40.5,0-76.819,34.409t-36.321,72.784q0,25.064,14.8,39.79t39.72,14.726q36.672,0,78.869-36.816-18.415,27.755-30.532,39.719a80.951,80.951,0,0,1-27.7,18.054q-52.238-13.593-78.565-13.593-33.974,0-33.973,12.744,0,13.593,44.45,13.594a250.588,250.588,0,0,0,48.695-4.673q36.806,11.751,54.782,15.434a185.893,185.893,0,0,0,37.372,3.682q26.475,0,40.35-9.527,7.5-5.263,7.5-7.536a1.353,1.353,0,0,0-.85-0.708,5.543,5.543,0,0,0-1.56.708q-11.895,10.689-26.61,10.691a98.031,98.031,0,0,1-21.31-2.478q-11.115-2.48-67.449-17.488,32.013-8.211,50.859-26.055t36.54-56.64q23.37-17.131,48.08-45.738t24.71-38.657q0-5.1-5.81-5.1h0Zm-18.69,39.72a359.292,359.292,0,0,1-46.3,45.525q19.965-42.763,36.25-61.88,18.255-21.379,28.74-21.382,3.405,0,3.4,3.115Q1108.02,80.706,1085.93,106.546ZM880.737,248.36q-43.459,0-43.459-11.045,0-8.211,18.543-8.213,17.837,0,67.525,15.718a234.864,234.864,0,0,1-42.609,3.54h0Zm246.183-42.552c-0.75,0-1.7.755-2.83,2.264q-32.46,43.689-54.86,43.686-13.17,0-13.18-12.178,0-9.77,9.63-24.355,31.155-6.23,44.46-13.381t13.32-17.347a9.384,9.384,0,0,0-3.62-7.434,13.045,13.045,0,0,0-8.7-3.044q-11.76,0-30.45,10.195-35.535,19.4-35.54,44.888,0,10.762,6.73,17.912a21.963,21.963,0,0,0,16.65,7.151q20.985,0,50.32-36.2l6.09-7.633q2.55-3.252,2.55-3.677a0.761,0.761,0,0,0-.57-0.85h0Zm-25.55-7.363q-14.175,9.558-34.56,14.8,11.76-16.566,24.01-26.975t19.75-10.407c3.3,0,4.96,1.511,4.96,4.531Q1115.53,188.887,1101.37,198.445Zm124.82,7.222q-0.72,0-1.56,1.416a244.95,244.95,0,0,1-25.38,31.982q-12.48,12.977-18.16,12.976-5.52,0-5.53-6.655,0-6.936,13.03-28.745l25.07-41.489a64.453,64.453,0,0,1-9.92.991,33.464,33.464,0,0,1-7.5-.991l-7.22,13.735a24.7,24.7,0,0,0,1.13-6.372q0-8.5-8.78-8.5-10.335,0-27.19,9.346-38.37,20.958-38.37,48.144,0,9.771,5.1,16.213,5.085,6.442,12.6,6.443,7.08,0,14.58-6.938,7.515-6.936,21.67-26.763-4.53,8.921-4.53,16.568a18.372,18.372,0,0,0,4.11,12.248,13.242,13.242,0,0,0,10.63,4.885q9.645,0,26.37-20.138,20.7-24.532,20.7-27.511a0.754,0.754,0,0,0-.85-0.849h0Zm-57.85,13.948q-24.075,32.427-33.84,32.426-8.22,0-8.21-9.2,0-15.717,21.17-41.206t34.19-25.488q6.375,0,6.38,6.938,0,9.914-19.69,36.534h0Zm137.57-13.948q-0.855,0-3.69,3.407-15.465,19.179-26.24,19.178-6.255,0-9.22-6.372,23.49-33.135,23.5-43.755,0-4.106-3.54-4.106-7.365,0-15.29,13.594t-7.93,26.479a26.5,26.5,0,0,0,1.27,7.5q-13.59,17.7-20.88,24.072-7.305,6.372-14.23,6.372-7.515,0-7.51-6.655,0-6.23,9.77-22.373l29.6-47.861a39.271,39.271,0,0,1-8.36.708c-1.6,0-4.72-.235-9.34-0.708l-22.38,37.524q-9.48,16-9.48,24.356a17.033,17.033,0,0,0,17.13,17.133q8.07,0,16-6.726t20.53-24.143q4.11,6.8,10.36,6.8,9.21,0,21.56-12.923,8.925-9.234,8.94-10.937a0.507,0.507,0,0,0-.57-0.566h0Zm71.37,0.141c-0.76,0-1.71.755-2.84,2.264q-32.46,43.689-54.85,43.686-13.185,0-13.19-12.178,0-9.77,9.63-24.355,31.155-6.23,44.47-13.381t13.31-17.347a9.4,9.4,0,0,0-3.61-7.434,13.072,13.072,0,0,0-8.71-3.044q-11.76,0-30.45,10.195-35.535,19.4-35.54,44.888,0,10.762,6.73,17.912a21.969,21.969,0,0,0,16.66,7.151q20.97,0,50.31-36.2l6.09-7.633q2.55-3.252,2.55-3.677a0.764,0.764,0,0,0-.56-0.85h0Zm-25.56-7.363q-14.16,9.558-34.55,14.8,11.745-16.566,24-26.975,12.24-10.407,19.75-10.407c3.3,0,4.96,1.511,4.96,4.531Q1365.88,188.887,1351.72,198.445Zm71.65-49.348q-4.815,0-9.77,7.08a49.861,49.861,0,0,0-7.37,16.992q-8.49,10.762-13.59,16.851L1381.31,203.9a5.643,5.643,0,0,0-2.55-.567q-8.07,0-15.64,10.054-7.59,10.056-7.58,20.674,0,9.206,5.73,14.656t15.37,5.451q16.995,0,29.38-9.345t12.39-22.09q0-6.087-3.82-15.01-7.515-17.841-7.51-26.055a41.541,41.541,0,0,1,.85-7.646q17.7-16.8,17.7-22.444c0-1.651-.75-2.478-2.26-2.478h0ZM1395.26,237.1q-10.695,13.806-22.59,13.807a14.381,14.381,0,0,1-10.19-3.824,12.431,12.431,0,0,1-4.11-9.487,15.234,15.234,0,0,1,4.04-9.983,17.544,17.544,0,0,1,9.56-6.018q13.725-2.973,13.73-11.328a6.981,6.981,0,0,0-2.69-5.523q15.015-18.266,22.94-28.32a82.089,82.089,0,0,0-.57,10.62q0,7.79.29,11.966t0.28,8.425Q1405.95,223.3,1395.26,237.1Z" transform="translate(0 -21)"/>
  </g>
</svg>
